<svg aria-hidden="true" style="position: absolute; width: 0; height: 0; overflow: hidden;" version="1.1" xmlns="http://www.w3.org/2000/svg" xmlns:xlink="http://www.w3.org/1999/xlink">
<defs>
<symbol id="icon-map" viewBox="0 0 28 32">
<path d="M14.823 19.047l0.060-0.035c3.197-2.010 5.549-5.242 6.417-9.137 0.49-2.375 0.25-4.719-0.862-6.542l-0.017-0.029c-0.329-0.536-0.731-1.022-1.197-1.45l0.003 0.003c-1.188-1.127-2.784-1.828-4.55-1.857l-0.005 0c-1.822 0.024-3.489 0.688-4.776 1.768l-0.014 0.011c-0.598 0.477-1.116 1.050-1.548 1.723-1.042 1.628-1.362 3.628-1.026 5.708l0.013 0.083c0.424 2.267 1.42 4.333 2.815 6.019l0.025 0.032c1.159 1.437 2.547 2.681 4.178 3.718l-0.002-0.001c0.067 0.044 0.147 0.070 0.233 0.070 0.096 0 0.184-0.032 0.253-0.085zM9.875 19.24v7.245l7.852 3.385v-9.331c0.617-0.473 1.165-0.954 1.68-1.467l-0.001 0.001v10.724l6.51-3.279v-14.583l-2.503 0.964c0.218-0.549 0.43-1.228 0.598-1.924l0.022-0.109 2.422-0.935c0.085-0.032 0.184-0.051 0.288-0.051 0.355 0 0.658 0.221 0.781 0.532l0.002 0.006c0.036 0.090 0.057 0.193 0.057 0.302v16.328c0 0.001 0 0.002 0 0.003 0 0.349-0.213 0.648-0.515 0.776l-0.006 0.002-8.125 4.081c-0.111 0.057-0.241 0.091-0.38 0.091s-0.27-0.034-0.385-0.093l0.005 0.002-9.115-3.951-7.844 3.951c-0.11 0.057-0.241 0.091-0.379 0.091-0.325 0-0.607-0.185-0.746-0.456l-0.002-0.005c-0.057-0.11-0.090-0.24-0.091-0.377v-17.297c0-0 0-0 0-0 0-0.38 0.252-0.701 0.598-0.806l0.006-0.002 4.266-1.646c0.191 0.645 0.382 1.17 0.6 1.68l-0.038-0.1-3.75 1.445v15.365l6.51-3.279v-9.052c0.538 0.638 1.088 1.215 1.67 1.757l0.012 0.011zM14.362 3.701c1.973 0 3.573 1.6 3.573 3.573s-1.6 3.573-3.573 3.573c-1.973 0-3.573-1.6-3.573-3.573v0c0-1.973 1.6-3.573 3.573-3.573v0z"></path>
</symbol>
<symbol id="icon-close" viewBox="0 0 32 32">
<path stroke-linejoin="round" stroke-linecap="round" stroke-miterlimit="4" stroke-width="2.6667" d="M24 8l-16 16M8 8l16 16"></path>
</symbol>
</defs>
</svg>
